<svg width="2336" height="496" viewBox="0 0 2336 496" fill="none" xmlns="http://www.w3.org/2000/svg">
<g clip-path="url(#clip0_66_3)">
<rect width="2336" height="496" fill="white"/>
<g opacity="0.3">
<path opacity="0.3" d="M2336.1 1.7998L2189.7 1.5998L2121.5 1.6998L1918.4 2.2998C1902.4 2.2998 1833.7 2.0998 1827.3 2.2998C1820.9 2.4998 1686.5 2.2998 1669.1 2.2998C1651.7 2.2998 1352.6 2.6998 1341.7 2.4998C1330.8 2.2998 1239.7 2.4998 1226.9 2.4998C1214.2 2.4998 1033.4 2.8998 1008.7 2.6998C984 2.4998 809.3 2.6998 809.3 2.6998H485.8L414.9 2.9998C295.6 3.3998 230.2 3.5998 218.7 3.4998C201.5 3.2998 71.6 3.4998 60.4 3.4998L-0.100006 3.2998V1.1998L183.8 0.899805H485.8L611 1.1998L890.7 0.899805C897.6 0.899805 1161.9 0.399805 1168.1 0.699805C1174.2 0.899805 1377.9 0.699805 1377.9 0.699805L1654.4 0.499805L1890 0.299805H2336.1V1.7998Z" fill="black"/>
<path opacity="0.3" d="M327.4 495.7L401.5 427.4C406.6 422.6 449.4 381.7 453.3 378.2L478.4 354.8L510.9 324.4L560.5 277.2C562.5 275.3 595.2 243.8 600 239.5C604.8 235.2 623.8 217.3 627.7 213.6C631.6 209.9 662.8 180.7 669.8 173.8C676.8 166.9 701.6 143.5 706.5 138.9L722.5 123.8L744.6 102.9L774 74.7L816.4 34.6L843 9.8L850.2 3L846.8 3.1L783.8 62.8C776.3 69.8 748.7 96.5 744.4 100.5C740.2 104.5 731.8 112.9 723.8 120C715.8 127.1 695.5 147 692.4 149.9L672.8 168.2C671.9 169 644.3 195.7 636.3 203C595.452 241.07 554.851 279.404 514.5 318L436.7 391.3C419.8 406.9 407.7 418.3 400.2 425.3C389.1 435.8 332.9 487.2 330.3 489.6L323.7 495.9L327.4 495.7Z" fill="black"/>
<path opacity="0.3" d="M-0.100006 55.0998L146.3 55.3998L214.5 55.2998L417.6 54.6998C433.6 54.6998 502.3 54.8998 508.7 54.6998C515.1 54.4998 649.5 54.6998 666.9 54.6998C684.3 54.6998 983.3 54.1998 994.2 54.4998C1005.1 54.6998 1096.2 54.4998 1109 54.4998C1121.7 54.4998 1302.5 54.0998 1327.2 54.2998C1352 54.4998 1526.6 54.2998 1526.6 54.2998H1850.1L1921 53.8998C2040.3 53.4998 2105.7 53.2998 2117.2 53.3998C2134.4 53.5998 2264.3 53.3998 2275.5 53.3998L2336 53.5998V55.9998L2152.1 56.2998H1850.1L1724.9 55.9998L1445.2 56.2998C1438.3 56.2998 1174 56.7998 1167.8 56.5998C1161.7 56.2998 958 56.5998 958 56.5998L681.7 56.6998L446.1 56.8998H-6.10203e-06L-0.100006 55.0998ZM0.899994 21.6998L147.2 21.8998L215.4 21.7998L418.4 21.2998H667.7C685.1 21.2998 984 20.8998 994.8 21.0998C1005.6 21.2998 1096.8 21.0998 1109.5 21.0998C1122.2 21.0998 1302.9 20.7998 1327.6 20.8998C1352.4 21.0998 1526.9 20.8998 1526.9 20.8998H1850.3L1921.2 20.5998C2040.5 20.2998 2105.8 20.0998 2117.3 20.1998H2275.5L2336 20.3998V22.1998L2152.2 22.4998H1850.3L1725.2 22.1998L1445.6 22.4998C1438.7 22.4998 1174.5 22.8998 1168.4 22.6998C1162.3 22.4998 958.7 22.6998 958.7 22.6998L682.3 22.8998L446.8 23.0998H0.799994L0.899994 21.6998ZM1.19999 285.8L147.5 286.5L215.7 286.6H418.8C434.7 286.6 503.4 287 509.9 286.9C516.4 286.8 650.6 287.3 668 287.4C685.4 287.5 984.2 287.8 995.1 288.1C1005.9 288.4 1097.1 288.4 1109.8 288.4C1248.93 288.407 1388.07 288.74 1527.2 289.4L1850.5 290.3L1921.4 290.1C2040.7 290 2106.1 290.1 2117.5 290.2C2134.6 290.4 2264.5 290.6 2275.7 290.7L2336.3 291.1V293.3L2152 293.2L1850.2 292.3L1725.2 291.6L1445.7 291.1C1438.8 291.1 1174.6 290.8 1168.5 290.5C1162.4 290.2 958.8 289.9 958.8 289.9L682.4 289.3L447 288.8L153.3 287.9L1.19999 287.5V285.8ZM0.0999939 96.9998C0.599994 101.3 531.5 96.9998 619.6 96.9998L1074.2 97.3998C1122.3 97.3998 1242.1 96.9998 1242.1 96.9998C1242.1 96.9998 1618.5 96.3998 1660.3 96.6998C1702.2 96.9998 2024.8 96.9998 2043 96.6998C2140.67 96.309 2238.33 96.409 2336 96.9998V94.3998C2265.9 94.1998 2206.3 94.2998 2166.8 94.5998C2107.6 94.8998 1775.6 95.1998 1750.2 95.1998L1433.4 94.8998L1345.6 95.1998L1148.1 94.8998H1011.2L720.5 95.0998C682 95.0998 593.7 95.0998 532.9 94.7998C472.1 94.4998 345 94.4998 304.1 94.4998H0.0999939V96.9998ZM2335.9 176.8L2203.1 176.2H2141.2L1956.8 176.3C1942.3 176.3 1879.9 175.9 1874.1 176.1C1868.3 176.3 1746.3 175.7 1730.5 175.7C1714.7 175.7 1443.3 175.4 1433.5 175.1C1423.7 174.8 1340.9 174.8 1329.4 174.8C1317.9 174.8 1153.8 174.7 1131.3 174.5C1108.9 174.2 950.3 174 950.3 174L656.7 173.2L592.3 173.4C485.033 173.66 377.766 173.527 270.5 173C263.7 173 30 172.9 0.199994 172.6L0.499994 170.3L382.9 170.4L657 171.2L770.6 171.8L1024.5 172.2C1030.8 172.2 1270.7 172.4 1276.3 172.7C1281.8 173 1466.7 173.2 1466.7 173.2C1621.63 173.644 1776.57 173.944 1931.5 174.1L2198.3 174.8L2336.5 175.2C2335.9 176.3 2335.9 176.8 2335.9 176.8Z" fill="black"/>
<path opacity="0.3" d="M1580.5 1.7L1610.3 36.3C1616.2 43 1639.2 70.2 1640.8 72L1655.7 89.3L1682.3 119.8L1705.7 146.7C1707.9 149.2 1744.4 191.7 1748.8 196.6C1774.67 225.995 1800.28 255.63 1825.6 285.5L1864.7 330.9L1900.7 372L1950.5 429.5L1982.6 466.8L2006.1 493.9C2006.5 494.4 2008.2 494.7 2011.1 494.8L1965.9 443C1958.58 434.773 1951.35 426.472 1944.2 418.1L1912.1 380.8L1882.8 347.5C1880.2 344.6 1837.7 295.5 1835.8 293.7C1833.9 291.9 1799 251.1 1796.5 248.3C1794.1 245.5 1764 211.4 1762.6 209.6C1732.5 174.435 1702.13 139.501 1671.5 104.8L1623.8 49.4L1597.6 19L1581.7 0.8L1580.5 1.7ZM1773.9 2.1L1807.4 28.9C1814 34.1 1839.9 55.3 1841.7 56.7L1858.4 70.1C1877.11 84.8647 1895.84 99.5981 1914.6 114.3C1917.1 116.2 1958.1 149.3 1963.1 152.9C1968 156.6 2007.4 187.8 2008.6 188.8L2049.4 221.8L2093.3 257L2133.7 288.7L2189.7 333.3L2225.8 362.2L2336 449.6V444.8L2206.8 342.4C2194.8 333.1 2186.7 326.7 2182.4 323.2C2170.41 313.482 2158.37 303.815 2146.3 294.2L2113.4 268.5C2110.5 266.2 2062.7 228.3 2060.7 227C2058.7 225.7 2019.3 194 2016.6 191.9C2013.9 189.8 1980.1 163.5 1978.5 162.1C1944.72 134.663 1910.62 107.628 1876.2 81L1822.5 38L1793 14.5L1775.2 0.5L1773.9 2.1ZM651.9 3.1L618 29.4L583.3 56.6L566.4 69.8L536.2 93L509.6 113.4L460.7 151.4C455.7 155.1 416 185.7 414.7 186.7C413.5 187.7 376.2 217 373.4 219L329 253.6L288.3 284.8L231.8 328.6L195.3 357L168.7 377.6C168.2 378 23.3 496.3 20.4 495.8L214.9 338L239.5 319.1C243.8 315.6 256 306.2 276 290.7L309.1 265.4C312 263.2 360.3 225.8 362.3 224.5C364.3 223.2 404.1 192.1 406.9 190L445.3 160.7C479.585 133.909 514.019 107.308 548.6 80.9L602.8 38.7C618.679 26.3298 634.612 14.0297 650.6 1.8L651.9 3.1ZM1375.7 1.7L1387.6 32.6L1393.5 47L1411.2 90C1412.5 93.4 1418 107.9 1418.8 109.3C1423.33 120.414 1427.73 131.581 1432 142.8C1433.5 146.5 1459 209.8 1459.6 212C1460.2 214.3 1468.1 233.6 1469.2 236.3C1470.3 239 1485.9 277.3 1487.7 282.5C1502.22 319.373 1516.75 356.239 1531.3 393.1L1537.7 408.1C1548.2 433.4 1553.9 447.2 1554.7 449.6C1555.9 453.2 1567 480.7 1567.9 483.1L1572.7 495.9L1569.8 495.6L1554 456.7L1528.8 392.8L1518.8 366.4L1495 307.2C1494.4 305.7 1471.7 249.8 1471.5 248.5C1471.3 247.2 1454 204.1 1454 204.1L1430.6 145.6L1410.7 95.8L1386.2 33.7L1373.5 1.5L1375.7 1.7ZM1180.7 495.8L1180.6 369.1L1181 271.6C1181 261.2 1180.6 235.6 1180.6 235.6C1180.6 235.6 1180 154.9 1180.3 145.9C1180.6 136.9 1180.6 67.8 1180.3 63.9C1179.91 42.9672 1180.01 22.0281 1180.6 1.1L1177.9 2.1C1177.7 17.1 1177.7 28.9 1177.9 37.3C1178.3 50 1178.5 121.2 1178.5 126.6L1178.2 194.5L1178.5 213.3L1178.2 255.6V284.9L1178.5 347.2C1178.5 355.4 1178.5 374.4 1178.2 387.4C1177.9 400.4 1177.9 427.7 1177.9 436.4V473.8L1178 495.5C1179 495.8 1180.1 495.8 1180.7 495.8ZM757.9 495.8C759 495.8 813.9 382.2 822.9 363.6L869.7 268.2C874.6 258.1 886.5 232.6 886.5 232.6C886.5 232.6 924.4 152.9 929 144.3C933.5 135.7 966.5 67.8 968.1 63.7C977.653 42.9849 987.723 22.5119 998.3 2.3L995.7 1.4C988.3 16 982.7 27.5 978.9 36C973.1 48.7 939.4 118.8 936.8 124.2L904.2 190.6L895.5 209.3L875.1 250.6L861.1 279.4L831.7 340.9C825.364 354.031 818.897 367.098 812.3 380.1C804.319 396.044 796.452 412.044 788.7 428.1L770.9 464.8L755.2 495.8H757.9Z" fill="black"/>
</g>
</g>
<defs>
<clipPath id="clip0_66_3">
<rect width="2336" height="496" fill="white"/>
</clipPath>
</defs>
</svg>
