<svg width="1366" height="1362" viewBox="0 0 1366 1362" fill="none" xmlns="http://www.w3.org/2000/svg">
<g opacity="0.5">
<path d="M600.765 557.44L563.635 498.007Z" fill="black"/>
<path d="M461.069 421.471L96.4985 0.356201M522.678 430.63L463.977 339.057M573.175 398.375L480.833 135.191M641.218 474.85L614.154 283.097M684.859 437.9L696.935 279.092M728.287 401.694L823.065 0.849239M773.735 440.595L982.46 0.849239M857.654 410.29L1077.61 119.397M1007.62 368.261L1361.74 61.8764M993.062 460.793L1360.5 235.261M904.74 577.282L1365.81 410.75M1062.08 607.647L1266.7 580.662M965.023 682.277L1360.5 712.462M988.653 738.439L1238.85 797.647M1062.26 846.321L1360.5 988.508M1068.49 966.535L1360.5 1190.66M810.957 824.348L1275.47 1361.64M821.132 909.89L1104.05 1361.64M761.188 910.559L896.394 1285.62M690.839 827.033L766.232 1361.64M654.657 874.704L622.462 1361.63M600.847 947.646L505.405 1361.64M581.718 849.701L400.271 1237.31M433.085 970.846L139.444 1361.63M416.678 879.245L138.469 1122.07M232.432 933.562L87.3147 1024.12M282.77 801.904L0.180725 901.174M371.531 704.211L84.4943 744.071M291.412 634.868L83.3169 618.494M397.368 600.542L0.180725 507.637M273.614 477.611L49.7087 371.049M291.259 379.475L120.802 248.557M636.952 570.039L600.502 472.39M653.058 565.788L651.273 553.068M677.039 564.446L677.521 557.39M679.301 519.941L682.806 482.186M695.286 543.07L708.988 484.278M723.938 546.757L753.302 484.081M764.907 532.716L829.33 449.366M785.542 560.529L839.735 515.153M875.228 483.062L971.589 399.717M744.332 596.302L749.442 591.919M769.211 600.076L953.008 487.176M764.376 628.075L807.995 612.271M861.088 635.454L966.206 622.214M811.976 671.265L917.209 678.836M768.877 687.24L887.631 714.916M762.251 706.852L764.677 707.997M857.928 751.85L968.539 803.728M750.778 725.949L754.721 730.37M722.137 751.543L731.605 766.657M861.893 811.6L960.478 886.312M762.371 815.999L791.133 860.05M705.976 759.311L740.329 856.286M681.174 765.096L681.803 769.528M662.713 771.642L658.562 817.588M644.203 762.116L640.95 780.818M623.809 854.495L611.252 902.955M606.279 742.312L507.744 874.331M592.183 727.959L516.177 795.259M502.607 765.901L343.333 864.712M575.026 696.41L405.977 758.725M570.563 675.588L500.86 686.413M506.605 650.322L422.242 644.22M572.507 642.543L497.213 624.942M579.927 621.299L374.729 523.814M590.31 604.289L580.064 596.543M524.868 554.81L373.387 441.351M559.479 535.335L528.034 498.91M600.765 557.44L563.635 498.007" stroke="white" stroke-opacity="0.6" stroke-width="2" stroke-miterlimit="10"/>
</g>
</svg>
