<svg width="65" height="37" viewBox="0 0 65 37" fill="none" xmlns="http://www.w3.org/2000/svg">
<g clip-path="url(#clip0_15_64)">
<path d="M62.6511 19.6448C62.1142 21.3159 61.0863 22.7369 58.8381 25.218L57.5059 26.6816C56.9919 27.25 56.722 27.5768 56.455 27.9378C55.3065 29.5037 50.635 31.9422 46.9512 33.3007C45.7823 33.7118 44.5795 34.0217 43.3565 34.2271L41.5677 34.5398L36.9737 35.3213C34.3667 35.7874 32.0065 35.7334 28.2653 35.2815L24.6217 34.8211C24.2657 34.7813 24.0188 34.7614 23.6713 34.733H23.5766C21.828 34.5995 20.4843 34.1902 18.2648 33.2296L16.6483 32.5219C15.9678 32.2377 15.4022 32.0104 14.8538 31.8342L14.5667 31.7489C11.8189 30.9247 6.1023 26.7384 4.34511 24.3312L4.13264 24.03C3.21384 22.6886 2.5994 21.7564 2.01367 19.838V19.0422L2.30079 18.1186C2.85781 16.5242 3.83116 15.1402 5.90131 12.8125L7.60969 10.9198C8.04612 10.4281 8.29017 10.1297 8.53423 9.78296C9.68272 8.21132 14.3542 5.7615 18.0351 4.40017C19.0826 4.02914 20.1591 3.74398 21.2538 3.54757L22.2386 3.36284L28.0098 2.38518C30.7259 1.89636 33.178 1.97593 37.1977 2.4875L40.3331 2.88822C40.6891 2.92801 40.936 2.9479 41.2834 2.97632H41.3782C43.0234 3.10137 44.3068 3.47368 46.3023 4.3206L48.3122 5.19594C48.986 5.49276 49.6762 5.7518 50.3795 5.97181C53.1244 6.80168 58.841 11.0022 60.5953 13.4179L60.7992 13.7277C61.7151 15.0748 62.1802 16.1604 62.7688 18.093L62.9555 18.7268L62.6511 19.6448Z" fill="white"/>
<path d="M23.5506 3.29504L24.1248 3.03073C26.6934 1.65889 29.5672 0.942984 32.4858 0.947531C34.6237 0.947247 36.7439 1.33234 38.7422 2.08434L39.1098 2.17244C41.2976 2.65843 43.609 4.82689 45.2111 6.15127C46.3424 7.08345 47.422 8.94497 48.1713 10.4143C48.2632 10.5905 48.3551 10.7724 48.4412 10.9543C48.6336 11.3465 48.7944 11.6932 48.9179 11.9575C49.217 12.6368 49.4462 13.3444 49.6012 14.0691C49.8479 15.0164 50.0141 15.9821 50.0979 16.9566C50.1631 17.4568 50.2271 17.9883 50.2903 18.551C50.6406 21.6943 48.8289 25.2638 48.335 26.5229C47.8412 27.7819 45.5815 30.5273 45.2226 31.0331C44.8637 31.539 41.0909 33.9803 40.7435 34.2872C40.3961 34.5942 37.0798 35.6543 36.5486 35.8049C36.0174 35.9555 31.7565 36.288 31.1478 36.288C30.5391 36.288 25.9136 34.8926 25.5116 34.6965C25.1096 34.5004 22.5083 33.0851 21.98 32.8264C21.4517 32.5678 19.1662 30.226 18.8963 29.8963C18.6264 29.5667 16.295 26.0738 16.0825 25.6333C15.87 25.1928 15.2786 23.2261 15.0431 22.7174C14.8077 22.2087 14.667 18.9716 14.667 17.8376C14.6796 16.7611 14.8528 15.6925 15.1809 14.666C15.4824 13.6712 15.8471 11.75 17.1276 9.66968C17.5931 8.93445 18.1102 8.23276 18.6752 7.56943C19.1326 7.00131 19.6245 6.46133 20.1482 5.95232C21.3024 4.77857 22.537 3.74976 23.5506 3.29504Z" fill="#00D54B"/>
<path d="M41.289 22.0406L41.1942 22.2509C41.0548 22.5733 40.8967 22.8874 40.7205 23.1916C40.5654 23.4759 40.4334 23.7601 40.2869 24.0215C39.773 25.0816 38.369 26.0109 37.4904 26.6646C36.6118 27.3183 34.7656 27.7133 34.019 27.8639C33.2725 28.0146 32.0953 27.9634 30.4185 27.7701C28.7417 27.5769 27.0936 26.2241 26.4964 25.8234C25.8992 25.4226 24.7364 23.9448 24.5095 23.6975C24.2827 23.4503 23.473 21.2363 23.3467 21.0317C23.2204 20.8271 23.0596 18.9968 23.0596 18.7069C23.0596 18.4171 23.3783 16.206 23.4501 15.8933C23.708 15.3143 24.0034 14.7523 24.3344 14.2109C24.4062 14.0773 24.4837 13.9437 24.5612 13.813L24.6387 13.6936C24.7909 13.4378 24.9086 13.2503 24.9488 13.202L25.0981 13.0314C25.3804 12.6586 25.6914 12.308 26.0284 11.9827C26.172 11.8207 26.2897 11.6985 26.3414 11.6218C26.6545 11.3556 26.9919 11.1187 27.3492 10.9141C28.2868 10.2901 29.3305 9.8386 30.43 9.58123C30.5531 9.53557 30.6787 9.49667 30.8061 9.46471C31.0646 9.41639 32.1556 9.33966 32.4485 9.28282C32.7898 9.27632 33.1307 9.30778 33.4649 9.3766C33.8776 9.41442 34.2872 9.47994 34.6909 9.5727C36.1568 9.90345 37.5205 10.5791 38.6666 11.5423C39.8126 12.5055 40.7072 13.728 41.2746 15.1061C41.3923 15.3455 41.4884 15.5946 41.5618 15.8507C41.9806 17.201 42.0788 18.6288 41.8489 20.0228C41.8489 20.0768 41.8489 20.1336 41.8288 20.1876C41.7352 20.8268 41.5536 21.4503 41.289 22.0406Z" fill="black"/>
<path d="M27.734 10.6072C27.9995 10.7199 28.2471 10.8702 28.469 11.0534L28.5552 11.1301C28.8259 11.3721 29.0497 11.6611 29.2156 11.9827C29.2994 12.124 29.3632 12.276 29.4051 12.4346V12.4999C29.5416 12.9761 29.5535 13.4788 29.4395 13.9607L29.474 13.7732C29.4646 13.8517 29.4502 13.9295 29.4309 14.0062C29.3476 14.3348 29.2088 14.6471 29.0203 14.9299C29.0097 14.9463 29.0001 14.9634 28.9916 14.981C28.8308 15.3135 28.3886 15.6034 28.113 15.8137C27.965 15.9104 27.8034 15.9851 27.6335 16.0354C27.073 16.2557 26.458 16.3013 25.8706 16.1661L25.7844 16.1434L25.8849 16.1605C25.7175 16.1375 25.5547 16.0885 25.4026 16.0155C24.8498 15.7899 24.3785 15.4046 24.0502 14.91C24.0428 14.8986 24.0341 14.8882 24.0244 14.8787C24.0053 14.851 23.9889 14.8215 23.9756 14.7906C23.8351 14.5555 23.7288 14.3019 23.6597 14.0375C23.6481 14.0083 23.6404 13.9777 23.6368 13.9465C23.5377 13.5153 23.5377 13.0676 23.6368 12.6364L23.6712 12.5028L23.6884 12.4204C23.7082 12.3887 23.7324 12.36 23.7602 12.3351C23.9302 11.8556 24.2226 11.4278 24.609 11.0931C24.9954 10.7585 25.4626 10.5284 25.9653 10.4253L26.0371 10.4054L26.2898 10.3798H26.3644C26.4477 10.3798 26.5195 10.3656 26.5539 10.3571C26.6822 10.3577 26.8102 10.371 26.9358 10.3968C27.0326 10.4086 27.1285 10.4266 27.2229 10.4508H27.2689L27.355 10.4679C27.474 10.4962 27.5895 10.5371 27.6996 10.5901L27.734 10.6072Z" fill="white"/>
<path d="M0.503418 19.0422V19.4174C0.974299 21.2448 1.17816 22.2253 1.84141 23.1944C4.10681 26.511 6.13102 28.904 8.37632 30.2568L11.2964 31.9165L11.9883 32.2974C14.314 33.5706 16.2205 34.4289 18.0725 34.9547C18.6595 35.1237 19.257 35.2547 19.8612 35.3469L20.6365 35.4691L23.2751 35.9295C27.7657 36.7196 30.5968 36.9981 34.0595 36.7821C38.8745 36.478 43.0866 35.5629 48.2921 33.9401C51.8151 32.8459 57.4198 28.9722 60.0871 26.0421C61.026 25.0104 61.784 24.2516 62.3841 23.1262L62.7689 22.4128C63.1306 21.6768 64.0322 19.9318 63.9863 20.0398C64.0982 19.784 64.1815 19.7783 64.2734 19.531L64.5002 19.0394L64.4169 18.7154C63.9432 16.8823 63.4034 15.5266 62.7401 14.5547C60.4776 11.2295 58.4534 8.82516 56.211 7.46667L54.0087 6.2105C53.512 5.9263 53.0296 5.6421 52.7138 5.4801L52.6047 5.42042C50.2819 4.14435 48.3754 3.28038 46.5263 2.75461C45.9339 2.58454 45.3305 2.45445 44.7203 2.36525L43.9451 2.2402L41.3093 1.7798C36.8331 0.986872 34.002 0.705513 30.5422 0.924348C25.73 1.22844 21.5208 2.14642 16.3153 3.76637C12.7951 4.86907 7.19338 8.75979 4.52314 11.7013C3.52876 12.7947 2.6964 14.0224 2.05101 15.3476L1.93616 15.5892C1.5629 16.402 0.965686 17.8855 0.945587 17.9395C0.833609 18.1896 0.730245 18.4482 0.635494 18.6955L0.503418 19.0422ZM62.4588 19.6447C61.9218 21.3158 60.8939 22.7368 58.6458 25.2179L57.3135 26.6815C56.9424 27.083 56.5926 27.5032 56.2655 27.9406C55.117 29.5065 50.4427 31.945 46.7589 33.3035C45.5896 33.7136 44.387 34.0236 43.1641 34.2299L41.3753 34.5397L36.7814 35.3241C34.1772 35.7902 31.817 35.7362 28.0729 35.2843L24.438 34.8239C24.0819 34.7813 23.8379 34.7614 23.4905 34.733H23.3928C21.6443 34.5994 20.3034 34.1873 18.0839 33.2267L16.4674 32.5191C15.7841 32.2349 15.2185 32.0103 14.6701 31.8341L14.3973 31.7489C11.6524 30.9218 5.93291 26.7355 4.17572 24.3284L3.96612 24.0442C3.04733 22.6999 2.43001 21.7705 1.84428 19.8493V19.0422L2.1314 18.1186C2.64822 16.5185 3.6187 15.1344 5.68885 12.8068L7.39723 10.9169C7.83366 10.4252 8.08059 10.124 8.32464 9.78007C9.47313 8.20844 14.1417 5.76146 17.8227 4.39729C18.8705 4.02757 19.9469 3.74244 21.0413 3.54469L22.0376 3.37417L27.8088 2.38514C30.5278 1.89916 32.977 1.97874 36.9967 2.48746L40.1551 2.88818C40.5111 2.92797 40.7551 2.95071 41.1026 2.97628H41.2002C42.8425 3.10418 44.1288 3.47648 46.1243 4.3234L48.1342 5.19874C48.8077 5.49568 49.4979 5.75379 50.2015 5.97177C52.9464 6.80164 58.6601 11.0021 60.4144 13.4207L60.6269 13.722C61.5457 15.0691 62.0108 16.1519 62.5966 18.0844L62.7832 18.7211L62.4588 19.6447Z" fill="black"/>
</g>
<defs>
<clipPath id="clip0_15_64">
<rect width="63.9968" height="36" fill="white" transform="translate(0.503418 0.852661)"/>
</clipPath>
</defs>
</svg>
