<svg width="1366" height="967" viewBox="0 0 1366 967" fill="none" xmlns="http://www.w3.org/2000/svg">
<path opacity="0.3" fill-rule="evenodd" clip-rule="evenodd" d="M638.896 404.886L605.072 339.097C604.705 338.357 604.049 337.096 603.104 335.314L603.989 335.061L605.951 338.871C614.556 355.82 620.004 366.521 622.294 370.976C623.878 374.058 631.64 389.141 639.693 404.68L638.896 404.886ZM655.86 401.66L654.068 392.624L654.887 392.542C655.476 395.48 656.086 398.512 656.696 401.559L655.86 401.66ZM679.086 400.672L679.581 395.663L680.416 395.694C680.257 397.352 680.092 399.029 679.933 400.707L679.086 400.672ZM747.482 423.336L752.611 420.222L753.392 420.861L748.301 423.974C748.032 423.752 747.757 423.542 747.482 423.336ZM767.602 445.906L772.484 444.657L811.387 434.679L811.882 435.504C794.406 439.98 778.497 444.066 768.069 446.708C767.904 446.436 767.756 446.159 767.602 445.887V445.906ZM772.121 487.934L805.879 493.499L891.328 507.594L890.877 508.423C841.265 500.251 787.777 491.429 784.346 490.806C782.741 490.514 778.063 489.724 771.868 488.693C771.956 488.429 772.038 488.176 772.121 487.923V487.934ZM765.92 501.165L768.3 501.944L767.904 502.679L765.469 501.866C765.617 501.613 765.76 501.383 765.92 501.142V501.165ZM753.952 515.455L758.62 517.953L757.91 518.572C756.564 517.844 755.002 517.015 753.276 516.074C753.507 515.851 753.733 515.637 753.952 515.432V515.455ZM725.955 533.294L735.454 544.03L734.707 544.349C731.865 541.127 728.368 537.181 725.202 533.613L725.955 533.294ZM708.98 539.131C716.126 553.02 723.558 567.391 723.558 567.391L744.387 607.769L743.464 608.018C731.837 585.513 718.66 559.974 717.907 558.374C717.094 556.65 712.196 547.155 708.155 539.345L708.98 539.131ZM684.952 543.174L685.578 546.315L684.715 546.388C684.501 545.326 684.286 544.271 684.083 543.24L684.952 543.174ZM648.016 541.326C646.466 546.023 645.003 550.471 643.706 554.409L642.574 554.241C643.382 551.907 645.025 546.968 646.971 541.123L648.016 541.326ZM609.7 527.546C595.408 540.921 583.616 551.957 583.616 551.957C583.616 551.957 539.688 593.043 509.992 620.836L509.041 620.303C543.311 588.218 593.148 541.544 595.897 539.119C597.354 537.815 602.592 532.943 608.903 527.056L609.7 527.546ZM595.446 517.49C578.24 528.028 564.321 536.559 564.321 536.559L518.458 564.667L517.65 563.99C549.198 544.649 577.806 527.126 580.054 525.81C581.742 524.822 587.558 521.281 594.753 516.86C594.995 517.089 595.226 517.292 595.463 517.49H595.446ZM577.91 495.262C549.627 502.465 502.598 514.529 502.598 514.529L407.838 538.714L407.513 538.053L408.063 537.909C420.465 534.741 537.654 504.683 540.947 503.843L577.531 494.449C577.668 494.721 577.795 494.997 577.927 495.262H577.91ZM573.182 480.502C552.914 482.447 520.811 485.607 503.082 487.347L502.945 486.568L530.931 483.817L573.05 479.657C573.105 479.93 573.155 480.21 573.199 480.502H573.182ZM575.002 456.184C555.465 452.93 522.537 447.494 499.421 443.68L499.652 442.902L521.091 446.436L575.282 455.343C575.2 455.623 575.112 455.904 575.008 456.184H575.002ZM582.451 441.092C551.666 430.831 489.345 410.159 489.345 410.159L376.102 372.493L376.47 371.843L382.127 373.731C396.348 378.447 530.414 422.896 534.174 424.149C535.593 424.62 556.861 431.66 583 440.322L582.451 441.092ZM592.142 429.702L581.906 424.2L582.588 423.507L592.873 429.009L592.142 429.702ZM419.156 625.191L419.393 625.39C391.132 642.711 341.277 673.255 331.921 678.987C319.014 686.883 207.058 755.377 198.444 760.642L129.311 802.939L128.761 802.32C128.761 802.32 188.296 766.047 195.338 761.74C200.032 758.868 210.343 752.535 226.27 742.741C282.785 707.933 313.458 689.052 318.288 686.097C322.818 683.322 336.759 674.835 347.258 668.414L347.115 668.301L418.579 624.327L419.426 625.02L419.156 625.191ZM530.623 354.367L530.359 354.153L531.338 353.553L563.683 379.891L562.705 380.494L562.04 379.953L561.924 380.027L539.518 361.706L530.585 354.39L530.623 354.367ZM843.249 365.691L830.765 373.349L789.701 398.617L788.849 397.924L842.721 364.784L843.573 365.477L843.249 365.691ZM424.164 457.374L424.236 456.651L508.926 460.931L508.849 461.71L491.637 460.838L424.164 457.374ZM293.463 450.759L292.836 450.732C232.653 447.813 199.682 446.184 193.925 445.844C185.283 445.326 119.779 442.015 114.149 441.727C110.393 441.532 100.242 440.977 83.6949 440.061L83.9478 439.1C136.552 441.728 167.447 443.285 176.631 443.77L293.551 449.79L293.463 450.759ZM920.853 482.821C905.862 482.043 855.634 479.529 815.208 477.474L815.384 476.587L917.72 481.797L921.018 481.965L920.853 482.821ZM968.833 485.323L969.014 484.409C997.599 485.864 1028.93 487.456 1036.46 487.845L1184.57 495.496L1261.29 499.457C1261.16 499.943 1261.1 500.185 1261.1 500.185C1261.1 500.185 1195.13 496.682 1187.35 496.262L1152.96 494.546C1090.04 491.474 1055.9 489.809 1050.52 489.549C1042.47 489.137 1007.84 487.273 1004.6 487.179C1003.06 487.117 986.528 486.265 968.833 485.343V485.323ZM661.385 580.529C662.342 570.738 663.034 563.702 663.155 562.873C663.353 561.429 664.018 554.743 664.678 547.891H665.552C664.288 560.826 663.139 572.722 663.139 572.722C663.139 572.722 662.847 575.726 662.38 580.529H661.385ZM657.466 621.101V621.833H658.4C657.064 635.55 655.948 647.026 655.855 647.952C655.618 650.346 650.358 704.297 649.616 712.026C648.873 719.754 642.233 786.808 641.722 791.965C641.381 795.405 640.017 809.207 637.632 833.37L636.818 833.327C636.818 833.327 640.457 797.732 640.875 793.517C641.15 790.703 641.74 784.516 642.645 774.959C645.808 741.017 647.53 722.598 647.812 719.7C648.241 715.357 650.171 696.658 650.259 694.915C650.347 693.172 654.041 656.619 654.514 651.879C654.662 650.069 655.932 636.834 657.466 621.101ZM682.203 369.092L684.853 342.241L685.721 342.272C684.57 353.311 683.821 360.61 683.473 364.169C683.385 365.022 683.22 366.738 682.989 369.104L682.203 369.092ZM687.359 315.678C687.491 314.168 687.632 312.546 687.783 310.813C690.788 278.35 692.47 260.562 692.829 257.449C693.379 252.779 696.782 217.433 697.084 214.394C697.282 212.37 697.855 206.89 698.805 197.952L699.904 198.003C697.199 226.385 695.603 243.056 695.116 248.016L688.426 315.728L687.359 315.678ZM975.605 283.69L976.397 284.336L969.344 288.651C939.292 306.923 920.311 318.476 912.398 323.309C908.781 325.519 895.857 333.427 879.547 343.443L878.876 342.895L968.701 287.97C970.035 287.145 972.336 285.718 975.605 283.69ZM1011.77 261.345C1058.86 232.345 1084.84 216.384 1089.71 213.46C1097.57 208.747 1156.52 172.599 1161.6 169.486C1164.98 167.411 1174.16 161.833 1189.13 152.753L1189.88 153.566C1142.56 182.622 1114.77 199.688 1106.49 204.762L1012.72 262.131L1011.77 261.345ZM814.361 585.331L872.373 632.768C875.825 635.597 953.765 699.312 964.924 708.457L1080.27 802.95L1140.02 851.89L1139.14 852.279C1139.14 852.279 1087.9 810.161 1081.85 805.176C1077.79 801.853 1068.85 794.553 1055.01 783.275C1005.84 743.26 979.155 721.543 974.962 718.124C968.701 712.991 941.797 690.844 939.23 688.829C936.663 686.813 883.967 643.559 877.112 637.959C873.753 635.204 843.656 610.625 813.416 585.914L814.361 585.331ZM463.139 299.143L412.565 257.698C409.424 255.13 400.079 247.561 384.529 234.991C337.488 196.725 311.743 175.74 307.294 172.035C300.653 166.474 249.573 124.734 245.175 121.142C242.243 118.747 234.364 112.251 221.537 101.653L222.692 101.124C263.756 134.627 287.867 154.304 295.024 160.154L413.544 257.227C439.359 278.501 455.678 291.938 462.502 297.539L463.893 298.68L463.139 299.143ZM284.667 570.418C247.264 580.082 226.375 585.454 221.999 586.533C213.808 588.549 152.064 604.383 146.753 605.737C143.213 606.64 133.622 609.057 117.981 612.987L117.657 612.038C167.219 599.289 196.334 591.809 205.002 589.596L284.161 569.387L284.667 570.418ZM908.979 410.603L908.501 409.824C928.335 404.765 1003.84 385.405 1015.83 382.347L1155.51 346.669L1227.87 328.2L1228.12 328.92C1228.12 328.92 1165.86 344.693 1158.49 346.572C1153.57 347.825 1142.78 350.602 1126.1 354.904C1066.85 370.21 1034.69 378.512 1029.63 379.809C1022.04 381.755 989.326 390.013 986.314 390.861C983.301 391.71 919.385 407.945 911.101 410.062L908.979 410.603ZM764.403 646.571C772.28 661.841 788.326 692.938 791.19 698.515C794.934 705.796 827.412 768.95 829.907 773.815L849.961 812.815L849.192 813.014C849.192 813.014 832.068 779.446 830.023 775.477C828.667 772.828 825.652 767.006 820.98 758.012C804.36 726.101 795.352 708.78 793.956 706.048C791.85 701.959 782.873 684.322 781.95 682.7C781.191 681.361 768.976 657.518 763.496 646.812L764.403 646.571ZM575.673 282.736C572.217 276.064 570.164 272.076 569.516 270.774C567.317 266.353 550.138 233.077 548.665 230.217C547.686 228.31 545.062 223.137 540.793 214.697L541.81 214.437C555.648 241.148 563.768 256.838 566.168 261.508L576.904 282.394L575.673 282.736ZM584.248 603.34L585.381 603.73L542.024 669.145C539.781 672.527 489.251 748.855 481.989 759.786C474.727 770.717 411.807 865.522 406.969 872.814L368.109 931.358L367.241 930.969C367.241 930.969 400.774 880.691 404.743 874.729C407.381 870.754 413.164 862 422.092 848.465C453.745 800.39 470.929 774.303 473.645 770.204C477.718 764.067 495.358 737.659 496.903 735.18C498.448 732.701 532.844 681.011 537.297 674.309C539.693 670.694 562.914 635.585 584.248 603.34ZM756.564 343.521L757.548 343.91L736.73 375.373C736.35 375.941 733.041 380.953 728.033 388.53L727.011 388.141C741.023 367.002 756.487 343.618 756.487 343.618L756.564 343.521ZM776.997 312.728L839.066 219.215C841.107 216.141 847.077 207.025 856.976 191.866C887.221 145.876 903.832 120.693 906.808 116.317C911.277 109.748 944.365 59.7344 947.218 55.4382C949.12 52.5844 954.3 44.8481 962.758 32.2293L963.913 32.7624C937.39 72.9252 921.8 96.5167 917.142 103.537C912.484 110.557 886.791 149.27 840.061 219.675C823.089 245.024 812.386 261.044 807.951 267.734C805.109 272.015 792.087 291.687 777.931 313.078L776.997 312.728ZM282.556 341.505L274.97 339.023C210.004 317.614 174.43 305.855 168.247 303.746C158.968 300.582 88.3181 277.16 82.2492 275.144C78.2179 273.797 67.2894 270.129 49.4638 264.139L50.2115 263.325C106.968 282.09 140.298 293.125 150.2 296.43L283.068 340.626L282.556 341.505ZM972.543 570.683L956.513 565.328C951.604 563.694 905.543 548.435 861.511 533.831L861.956 533.002L949.219 561.962L973.022 569.866L972.543 570.683ZM1066.16 601.78L1066.62 600.939C1071.48 602.554 1075.17 603.776 1077.22 604.442L1236.89 657.549L1319.59 685.058C1319.21 685.47 1319.04 685.673 1319.04 685.673C1319.04 685.673 1248.02 661.935 1239.6 659.125C1233.98 657.257 1221.62 653.164 1202.5 646.847C1134.58 624.448 1097.74 612.287 1091.96 610.365C1087.73 608.983 1076.74 605.309 1066.17 601.78H1066.16ZM373.26 499.99L328.32 504.364C324.319 504.753 312.49 505.957 292.836 507.976C233.1 513.974 200.369 517.227 194.645 517.735C186.042 518.514 120.982 524.903 115.408 525.448C111.681 525.809 101.588 526.761 85.1297 528.305L85.0967 527.324C137.313 522.154 167.987 519.122 177.12 518.23L328.293 503.52C347.236 501.73 362.183 500.313 373.134 499.27L373.26 499.99ZM970.201 441.742C949.818 443.719 925.57 446.054 920.567 446.541C917.269 446.864 893.373 449.218 864.831 452.024L864.683 451.148L913.206 446.393L970.042 440.816L970.201 441.742ZM1066.59 432.286L1066.44 431.395L1178.25 420.499L1254.46 413.105C1254.46 413.595 1254.48 413.844 1254.48 413.844C1254.48 413.844 1188.95 420.106 1181.2 420.849C1176.02 421.355 1164.64 422.482 1147.05 424.231L1066.59 432.286ZM643.052 337.147L642.051 332.088C641.623 329.93 640.298 323.554 638.077 312.961C631.48 280.766 627.9 263.124 627.335 260.037C626.494 255.391 619.452 220.313 618.853 217.297C618.45 215.289 617.402 209.841 615.709 200.953L616.808 200.848C622.496 229.001 625.831 245.541 626.813 250.468C627.795 255.395 633.19 282.573 642.997 332.002C643.338 333.754 643.664 335.44 643.975 337.061L643.052 337.147ZM692.796 587.323L693.786 587.237C698.029 608.454 705.495 645.758 705.83 647.454C706.303 649.828 717.028 703.371 718.55 711.049C720.073 718.727 733.288 785.283 734.305 790.4C734.983 793.812 737.703 807.513 742.463 831.502L741.655 831.58C741.655 831.58 734.762 796.226 733.932 792.043C733.378 789.254 732.138 783.117 730.21 773.632C723.335 739.965 719.611 721.696 719.04 718.824C718.182 714.516 714.581 695.938 714.153 694.222C713.724 692.506 706.605 656.206 705.676 651.501C705.06 648.404 697.815 612.419 692.796 587.323ZM430.92 694.802C415.748 708.994 402.175 721.688 398.124 725.471L291.544 824.996L236.341 876.535L235.605 876.013C235.605 876.013 283.188 831.771 288.807 826.521C292.556 823.021 300.783 815.31 313.489 803.386C358.566 761.016 383.029 738.03 386.877 734.429C392.665 729.028 417.661 705.795 419.92 703.577C420.69 702.799 426.929 696.962 435.049 689.397L429.991 694.323L430.92 694.802ZM768.135 378.167L788.849 358.795L831.886 318.612L832.804 318.958L769.059 378.642L768.135 378.167ZM861.236 291.2L906.137 249.269C909.04 246.561 917.557 238.518 931.688 225.142C974.782 184.608 998.42 162.419 1002.6 158.574C1008.9 152.807 1055.92 108.763 1060 104.977C1062.7 102.455 1070.05 95.6502 1082.03 84.5621L1082.99 85.2509C1045.25 120.64 1023.07 141.423 1016.48 147.6L906.973 249.865C883.734 271.418 868.78 285.306 862.11 291.527L861.236 291.2ZM965.271 628.635L964.451 629.347C945.491 619.163 923.931 607.555 919.336 605.099C916.131 603.379 893.026 591.016 865.491 576.275L866.271 575.594L913.19 600.733C915.284 601.854 939.588 614.879 965.271 628.635ZM1072.88 686.334L1166.51 736.597L1239.32 775.675L1238.59 776.193C1238.59 776.193 1176.11 742.496 1168.71 738.531C1163.76 735.882 1152.87 730.059 1136.02 721.062L1072.13 686.996L1072.88 686.334ZM526.555 394.511L507.997 384.569L375.124 313.265L375.745 312.634C394.915 322.983 407.608 329.827 413.824 333.166C423.186 338.17 492 375.023 527.182 393.862L526.555 394.511ZM292.682 269.311C252.19 247.728 229.68 235.698 225.154 233.221C217.008 228.761 154.79 195.473 149.441 192.586C145.879 190.671 136.267 185.475 120.603 176.997L121.576 176.312C171.568 203.033 200.925 218.729 209.647 223.399L293.551 268.435L292.682 269.311ZM345.703 614.855L344.955 614.003L377.356 599.768C405.765 587.393 423.704 579.565 431.173 576.283C437.484 573.508 473.804 557.499 504.836 543.812L505.418 544.474L377.85 600.511C374.416 602.021 364.302 606.527 347.506 614.03L345.681 614.84L345.703 614.855ZM234.5 663.888C217.167 671.511 198.185 679.878 195.47 681.069C192.278 682.473 183.605 686.249 169.451 692.397L168.858 691.514C198.612 678.368 220.203 668.834 233.631 662.911L234.5 663.888ZM956.953 345.817C955.249 346.572 954.056 347.105 953.611 347.319C950.912 348.592 893.142 373.879 885.676 377.167C880.295 379.529 812.498 409.443 773.066 426.795L772.456 426.017L878.865 379.156L956.338 345.035L956.953 345.817ZM997.797 327.893L997.16 327.076L1106.13 279.21L1171.49 250.491L1171.93 251.161C1171.93 251.161 1115.67 275.751 1109.01 278.673C1104.57 280.622 1094.82 284.928 1079.76 291.593C1036.23 310.879 1008.91 322.979 997.797 327.893ZM794.461 610.691L793.626 611.046C785.572 601.955 775.122 590.156 765.59 579.4L766.442 579.038C775.688 589.475 786.611 601.815 794.461 610.691ZM825.455 645.715C837.131 658.911 850.016 673.477 853.1 676.967L913.086 744.932L944.156 780.127L943.463 780.434C943.463 780.434 916.851 750.123 913.69 746.539C911.579 744.145 906.919 738.895 899.711 730.791C874.083 702.012 860.184 686.394 858.014 683.937C854.76 680.248 840.792 664.316 839.417 662.868C838.747 662.16 831.859 654.358 824.575 646.096L825.455 645.715ZM603.368 395.729L566.097 353.511L566.905 353.18C579.929 368.066 588.188 377.489 591.68 381.448C593.121 383.082 597.876 388.452 604.066 395.457L603.368 395.729ZM523.818 306.112C516.253 297.603 511.856 292.635 510.624 291.208C507.188 287.207 480.599 257.189 478.317 254.608C476.8 252.886 472.714 248.216 466.058 240.599L466.976 240.21C488.361 264.267 500.916 278.408 504.643 282.631L524.983 305.649L523.818 306.112ZM613.895 641.17C617.6 629.884 621.541 617.902 625.274 606.562L626.5 606.745L615.137 641.352L613.895 641.17ZM603.45 672.916L597.244 693.596L597.859 693.689C590.543 715.909 571.83 772.776 568.647 782.415C564.761 794.175 531.052 896.171 528.463 904.016C526.729 909.246 519.79 930.241 507.645 967L506.677 966.735C506.677 966.735 524.725 912.62 526.841 906.203C528.256 901.925 531.34 892.512 536.093 877.963C552.925 826.281 562.069 798.239 563.524 793.837C565.723 787.221 575.205 758.813 575.98 756.14C576.756 753.466 595.221 697.884 597.617 690.673C598.134 689.155 600.295 682.513 603.466 672.916H603.45ZM712.003 343.759L713.103 343.895C708.513 357.873 705.176 368.022 704.89 368.894C704.665 369.567 702.537 376.066 699.393 385.662L698.249 385.522C703.252 370.396 708.754 353.678 712.02 343.759H712.003ZM731.375 285.094L759.164 201.108C760.263 197.8 763.426 188.003 768.652 171.716C784.726 122.284 793.576 95.2053 795.203 90.481C797.65 83.3985 815.323 29.6103 816.851 24.9911C817.867 21.9091 820.661 13.5787 825.235 0L826.516 0.350234C812.369 43.551 804.052 68.9222 801.564 76.4639C799.075 84.0056 785.309 125.654 760.263 201.408C751.101 228.7 745.337 245.945 742.969 253.141C741.831 256.589 737.631 269.353 732.42 285.219L731.375 285.094ZM398.982 427.064L284.09 408.034C279.417 407.256 265.577 405.017 242.57 401.318C172.74 389.939 134.489 383.677 127.815 382.533C117.811 380.802 41.8282 368.291 35.303 367.209C30.9493 366.482 19.1816 364.5 0 361.263L0.494748 360.352C61.521 370.366 97.361 376.254 108.015 378.015L284.513 407.248C323.067 413.734 347.427 417.815 357.593 419.491L399.196 426.348L398.982 427.064ZM992.284 525.129L992.734 524.304C1029.16 530.313 1093.23 540.882 1105.25 542.871L1277.03 571.321L1366 586.058L1365.63 586.743C1365.63 586.743 1289.18 573.967 1280.12 572.469C1274.07 571.47 1260.78 569.287 1240.22 565.92C1167.22 554.004 1127.6 547.533 1121.39 546.505C1112.04 544.949 1071.91 538.232 1068.13 537.683C1065.25 537.267 1018.6 529.511 992.284 525.137V525.129Z" fill="white"/>
</svg>
